<svg xmlns="http://www.w3.org/2000/svg" viewBox="0 0 24 24" data-brand-color="#32BCAD"><path d="M5.283 18.36a3.505 3.505 0 0 0 2.493-1.032l3.6-3.6a.684.684 0 0 1 .946 0l3.613 3.613a3.504 3.504 0 0 0 2.493 1.032h.71l-4.56 4.56a3.647 3.647 0 0 1-5.156 0L4.85 18.36h.434zM18.428 5.627a3.505 3.505 0 0 0-2.493 1.032l-3.613 3.614a.67.67 0 0 1-.946 0l-3.6-3.6A3.505 3.505 0 0 0 5.283 5.64h-.434l4.573-4.572a3.646 3.646 0 0 1 5.156 0l4.559 4.559h-.71zM1.068 9.422 3.86 6.633h1.422a2.483 2.483 0 0 1 1.744.722l3.6 3.6a1.73 1.73 0 0 0 2.443 0l3.614-3.613a2.482 2.482 0 0 1 1.744-.723h1.681l2.808 2.808a3.646 3.646 0 0 1 0 5.156l-2.808 2.807h-1.68a2.483 2.483 0 0 1-1.745-.722l-3.614-3.613a1.77 1.77 0 0 0-2.443 0l-3.6 3.6a2.483 2.483 0 0 1-1.744.722H3.861l-2.793-2.794a3.646 3.646 0 0 1 0-5.156"></path></svg>