<?xml version="1.0"?>
<svg id="Camada_1" xmlns="http://www.w3.org/2000/svg" version="1.1" viewBox="0 0 415.5 106.3">
  
  <defs>
    
  </defs>
  <g class="st4">
    <g class="st4">
      <path class="st3" d="M119.6,51.3c-1.5,6.9-2.5,10.9.3,10.9s1.3-.1,1.9-1.1h.2c-1,1.5-2.8,1.5-3.4,1.5-4.8,0-4.8-3.7-4-7.3-2.4,4.8-5.4,7.4-8.3,7.4-6.2,0-8.8-6.8-7-15.4,1.9-8.5,8.2-15.4,14.3-15.4s5,1.2,5.8,4.1l.8-3.4h3.7l-2.8,11-1.7,7.5ZM118.6,40.1c.4-1.6.5-2.8.2-4-.8-2.7-2.7-3.8-4.9-3.8-3.8,0-7.6,5.2-10.1,15.1-2.6,9.9-.8,14.8,3,14.8s6.4-3.3,8.7-9.8l.3-1.1,1.9-7.5.9-3.7Z"></path>
      <path class="st3" d="M145.6,51.3c-1.6,6.8-2.3,10.9.5,10.9s1.3-.1,1.9-1.1h.2c-.9,1.5-2.7,1.5-3.3,1.5-5.4,0-4.9-4.5-3.9-8.5-2.4,5.6-5.7,8.6-8.8,8.6-6.2,0-8.9-6.8-7-15.4,1.8-8.5,8.2-15.4,14.3-15.4s5,1.2,5.8,4.2l4.5-18.9c.4-1.8-.6-2.4-2.6-2.2v-.2l7.3-1.2-8.8,37.4ZM142.1,49.6l1.6-6.6c.7-3.4,1.4-5.2.9-7-.8-2.7-2.7-3.8-4.9-3.8-3.8,0-7.6,5.2-10.1,15.1-2.5,9.9-.8,14.8,3,14.8s7.2-4.3,9.5-12.6Z"></path>
      <path class="st3" d="M172,51.3c-1.5,6.9-2.5,10.9.3,10.9s1.3-.1,1.9-1.1h.2c-1,1.5-2.8,1.5-3.4,1.5-4.8,0-4.8-3.7-4-7.3-2.4,4.8-5.4,7.4-8.3,7.4-6.2,0-8.8-6.8-7-15.4,1.9-8.5,8.2-15.4,14.3-15.4s5,1.2,5.8,4.1l.8-3.4h3.7l-2.8,11-1.7,7.5ZM171,40.1c.4-1.6.5-2.8.2-4-.8-2.7-2.7-3.8-4.9-3.8-3.8,0-7.6,5.2-10.1,15.1-2.6,9.9-.8,14.8,3,14.8s6.4-3.3,8.7-9.8l.3-1.1,1.9-7.5.9-3.7Z"></path>
      <path class="st3" d="M195,42.3c1.5-6.6-1.5-9.9-4.8-9.9s-4.3,1-4.3,4.3c0,6.2,8.7,10.4,8.7,16.7s-4.7,9.4-10.5,9.4-8.7-4.5-8.7-7.8,1.8-5.1,4.9-5.1,4,2.1,3.5,4.5c-.2-.9-1.1-1.3-1.9-1.3-1.8,0-3.7,1.5-3.7,4.4s1.2,5,5.9,5,7.2-2.8,7.2-5.9c0-6.2-9.2-12.3-9-17.7.1-3.8,4.6-6.6,8.3-6.6s3.3.9,4.7,1c1.6.1,2.3-.8,2.5-1.6h.1l-2.5,10.7h-.3Z"></path>
    </g>
    <g class="st4">
      <path class="st2" d="M119.6,51.3c-1.5,6.9-2.5,10.9.3,10.9s1.3-.1,1.9-1.1h.2c-1,1.5-2.8,1.5-3.4,1.5-4.8,0-4.8-3.7-4-7.3-2.4,4.8-5.4,7.4-8.3,7.4-6.2,0-8.8-6.8-7-15.4,1.9-8.5,8.2-15.4,14.3-15.4s5,1.2,5.8,4.1l.8-3.4h3.7l-2.8,11-1.7,7.5ZM118.6,40.1c.4-1.6.5-2.8.2-4-.8-2.7-2.7-3.8-4.9-3.8-3.8,0-7.6,5.2-10.1,15.1-2.6,9.9-.8,14.8,3,14.8s6.4-3.3,8.7-9.8l.3-1.1,1.9-7.5.9-3.7Z"></path>
      <path class="st2" d="M145.6,51.3c-1.6,6.8-2.3,10.9.5,10.9s1.3-.1,1.9-1.1h.2c-.9,1.5-2.7,1.5-3.3,1.5-5.4,0-4.9-4.5-3.9-8.5-2.4,5.6-5.7,8.6-8.8,8.6-6.2,0-8.9-6.8-7-15.4,1.8-8.5,8.2-15.4,14.3-15.4s5,1.2,5.8,4.2l4.5-18.9c.4-1.8-.6-2.4-2.6-2.2v-.2l7.3-1.2-8.8,37.4ZM142.1,49.6l1.6-6.6c.7-3.4,1.4-5.2.9-7-.8-2.7-2.7-3.8-4.9-3.8-3.8,0-7.6,5.2-10.1,15.1-2.5,9.9-.8,14.8,3,14.8s7.2-4.3,9.5-12.6Z"></path>
      <path class="st2" d="M172,51.3c-1.5,6.9-2.5,10.9.3,10.9s1.3-.1,1.9-1.1h.2c-1,1.5-2.8,1.5-3.4,1.5-4.8,0-4.8-3.7-4-7.3-2.4,4.8-5.4,7.4-8.3,7.4-6.2,0-8.8-6.8-7-15.4,1.9-8.5,8.2-15.4,14.3-15.4s5,1.2,5.8,4.1l.8-3.4h3.7l-2.8,11-1.7,7.5ZM171,40.1c.4-1.6.5-2.8.2-4-.8-2.7-2.7-3.8-4.9-3.8-3.8,0-7.6,5.2-10.1,15.1-2.6,9.9-.8,14.8,3,14.8s6.4-3.3,8.7-9.8l.3-1.1,1.9-7.5.9-3.7Z"></path>
      <path class="st2" d="M195,42.3c1.5-6.6-1.5-9.9-4.8-9.9s-4.3,1-4.3,4.3c0,6.2,8.7,10.4,8.7,16.7s-4.7,9.4-10.5,9.4-8.7-4.5-8.7-7.8,1.8-5.1,4.9-5.1,4,2.1,3.5,4.5c-.2-.9-1.1-1.3-1.9-1.3-1.8,0-3.7,1.5-3.7,4.4s1.2,5,5.9,5,7.2-2.8,7.2-5.9c0-6.2-9.2-12.3-9-17.7.1-3.8,4.6-6.6,8.3-6.6s3.3.9,4.7,1c1.6.1,2.3-.8,2.5-1.6h.1l-2.5,10.7h-.3Z"></path>
    </g>
    <g class="st4">
      <path d="M235.2,51.3c-1.6,6.8-2.3,10.9.5,10.9s1.3-.1,1.9-1.1h.2c-.9,1.5-2.7,1.5-3.3,1.5-5.4,0-4.9-4.5-3.9-8.5-2.4,5.6-5.7,8.6-8.8,8.6-6.2,0-8.9-6.8-7-15.4,1.8-8.5,8.2-15.4,14.3-15.4s5,1.2,5.8,4.2l4.5-18.9c.4-1.8-.6-2.4-2.6-2.2v-.2l7.3-1.2-8.8,37.4ZM231.8,49.6l1.6-6.6c.7-3.4,1.4-5.2.9-7-.8-2.7-2.7-3.8-4.9-3.8-3.8,0-7.6,5.2-10.1,15.1-2.5,9.9-.8,14.8,3,14.8s7.2-4.3,9.5-12.6Z"></path>
      <path d="M255.8,32c6.2,0,9.6,6.8,7.9,15.4-1.7,8.5-8,15.4-14,15.4s-9.6-6.8-7.9-15.4c1.7-8.5,7.9-15.4,14-15.4ZM249.4,62.5c3.9,0,7.7-5.4,9.8-15.1,2.1-9.8.6-15.1-3.3-15.1s-7.5,5.2-9.8,15.1c-2.4,9.9-.6,15.1,3.3,15.1Z"></path>
    </g>
    <g class="st4">
      <path class="st1" d="M235.2,51.3c-1.6,6.8-2.3,10.9.5,10.9s1.3-.1,1.9-1.1h.2c-.9,1.5-2.7,1.5-3.3,1.5-5.4,0-4.9-4.5-3.9-8.5-2.4,5.6-5.7,8.6-8.8,8.6-6.2,0-8.9-6.8-7-15.4,1.8-8.5,8.2-15.4,14.3-15.4s5,1.2,5.8,4.2l4.5-18.9c.4-1.8-.6-2.4-2.6-2.2v-.2l7.3-1.2-8.8,37.4ZM231.8,49.6l1.6-6.6c.7-3.4,1.4-5.2.9-7-.8-2.7-2.7-3.8-4.9-3.8-3.8,0-7.6,5.2-10.1,15.1-2.5,9.9-.8,14.8,3,14.8s7.2-4.3,9.5-12.6Z"></path>
      <path class="st1" d="M255.8,32c6.2,0,9.6,6.8,7.9,15.4-1.7,8.5-8,15.4-14,15.4s-9.6-6.8-7.9-15.4c1.7-8.5,7.9-15.4,14-15.4ZM249.4,62.5c3.9,0,7.7-5.4,9.8-15.1,2.1-9.8.6-15.1-3.3-15.1s-7.5,5.2-9.8,15.1c-2.4,9.9-.6,15.1,3.3,15.1Z"></path>
    </g>
  </g>
  <g class="st4">
    <g class="st4">
      <path d="M325.9,14.8c8.8,0,14.1,4.3,14,10.7-.1,5.8-4.8,12.1-14.4,12.1s-.6.3-.3.3c1.1.2,2.1.3,3.1.5,6.7,1.7,10.7,5.8,10.5,11.7-.3,7.5-7.6,14.7-22.3,14.7s-6.7-.9-14.6-.9h-2.9c0,.1,0-.1,0-.1,3.9,0,5.5-1.1,6.1-3.7l8.7-37.4.5-2.2c1.2-5-1-5.3-7.5-5.3-15.6,0-30.1,7.2-30.1,24.6s4.2,15.5,12.7,15.5,13.1-3.8,13.1-10.3-1.4-4.4-3.5-4.4-2.4.7-2.9,2c-.1-.4-.1-.7-.1-1.1,0-1.9,1.2-4.3,4.2-4.3s5.2,2.4,5.2,5.4c0,7.4-8.1,13-16.5,13s-15.8-6.4-15.8-14.2c0-16.3,16.8-26.7,32.6-26.7s8.5,0,13.2.5h.1c1.9,0,5.2-.3,7-.3ZM319.7,37.8h.2c12.7,0,16.1-7,16.2-12.6.1-5.8-3.8-9.9-10.3-10-1.7,0-5.5-.2-6.5,3.1l-9.9,41.9c-.8,4,3.6,4.3,6.6,4.3,13.1,0,18.3-9.4,18.3-15.1s-2.4-11.3-13-11.3h-1.6v-.2Z"></path>
      <path d="M358.1,56.1c0-2.2-1.4-3.2-2.8-3.2s-1.4.4-1.9,1.3c0-2.3,1.3-4.5,4.2-4.5s3.6,1.8,3.6,3.9c0,3.8-4,8.8-9.6,8.9h-.2c-8.4,0-10.3-8.5-9.1-15.3,1.5-8.5,8.3-15.3,14.3-15.3s9.1,2.3,6.8,12.7h-16.1l-.6,2.6c-2.6,10.3,0,14.9,5,14.9s6.5-3.6,6.5-6.1ZM347.2,44.5h12.4c2.1-7.3.9-12.3-2.9-12.3s-7.1,4.2-9.5,12.3Z"></path>
      <path d="M384.3,42c.9-4,1.8-9.9-3.5-9.6-4.6.3-7.3,6.3-8.7,10.7l-3.9,16.6c-.4,1.6.3,2.2,1.8,2.2h.4v.2h-9.1v-.2c1.4,0,2.6-.2,3.1-2.2l5.6-24.1c.4-1.8-.6-2.4-2.6-2.2v-.2l7.3-1.2-2.2,9.1c1.7-4.7,4.5-9.3,9.7-9.6,5.8-.2,7,4.3,6.2,8.6,1.7-4.3,4.4-8.4,9.4-8.6,6.2-.3,7.1,4.8,6,9.4l-2.7,10.8c-1.7,6.8-2.2,10.2.7,10.2s1.3,0,1.9-1.1h.2c-.9,1.5-2.7,1.5-3.3,1.5-2.5,0-4.7-1.5-4.7-3.9s1.1-5.6,1.4-6.7l2.4-9.8c.9-4,1.8-9.9-3.5-9.6-4.1.3-6.7,5.2-8.2,9.4l-2.3,9.2-2.1,8.7c-.4,1.6.3,2.2,1.8,2.2h.4v.2h-9.1v-.2c1.4,0,2.6-.2,3.1-2.2l2.1-8.7,2.2-9Z"></path>
    </g>
    <g class="st4">
      <path class="st1" d="M325.9,14.8c8.8,0,14.1,4.3,14,10.7-.1,5.8-4.8,12.1-14.4,12.1s-.6.3-.3.3c1.1.2,2.1.3,3.1.5,6.7,1.7,10.7,5.8,10.5,11.7-.3,7.5-7.6,14.7-22.3,14.7s-6.7-.9-14.6-.9h-2.9c0,.1,0-.1,0-.1,3.9,0,5.5-1.1,6.1-3.7l8.7-37.4.5-2.2c1.2-5-1-5.3-7.5-5.3-15.6,0-30.1,7.2-30.1,24.6s4.2,15.5,12.7,15.5,13.1-3.8,13.1-10.3-1.4-4.4-3.5-4.4-2.4.7-2.9,2c-.1-.4-.1-.7-.1-1.1,0-1.9,1.2-4.3,4.2-4.3s5.2,2.4,5.2,5.4c0,7.4-8.1,13-16.5,13s-15.8-6.4-15.8-14.2c0-16.3,16.8-26.7,32.6-26.7s8.5,0,13.2.5h.1c1.9,0,5.2-.3,7-.3ZM319.7,37.8h.2c12.7,0,16.1-7,16.2-12.6.1-5.8-3.8-9.9-10.3-10-1.7,0-5.5-.2-6.5,3.1l-9.9,41.9c-.8,4,3.6,4.3,6.6,4.3,13.1,0,18.3-9.4,18.3-15.1s-2.4-11.3-13-11.3h-1.6v-.2Z"></path>
      <path class="st1" d="M358.1,56.1c0-2.2-1.4-3.2-2.8-3.2s-1.4.4-1.9,1.3c0-2.3,1.3-4.5,4.2-4.5s3.6,1.8,3.6,3.9c0,3.8-4,8.8-9.6,8.9h-.2c-8.4,0-10.3-8.5-9.1-15.3,1.5-8.5,8.3-15.3,14.3-15.3s9.1,2.3,6.8,12.7h-16.1l-.6,2.6c-2.6,10.3,0,14.9,5,14.9s6.5-3.6,6.5-6.1ZM347.2,44.5h12.4c2.1-7.3.9-12.3-2.9-12.3s-7.1,4.2-9.5,12.3Z"></path>
      <path class="st1" d="M384.3,42c.9-4,1.8-9.9-3.5-9.6-4.6.3-7.3,6.3-8.7,10.7l-3.9,16.6c-.4,1.6.3,2.2,1.8,2.2h.4v.2h-9.1v-.2c1.4,0,2.6-.2,3.1-2.2l5.6-24.1c.4-1.8-.6-2.4-2.6-2.2v-.2l7.3-1.2-2.2,9.1c1.7-4.7,4.5-9.3,9.7-9.6,5.8-.2,7,4.3,6.2,8.6,1.7-4.3,4.4-8.4,9.4-8.6,6.2-.3,7.1,4.8,6,9.4l-2.7,10.8c-1.7,6.8-2.2,10.2.7,10.2s1.3,0,1.9-1.1h.2c-.9,1.5-2.7,1.5-3.3,1.5-2.5,0-4.7-1.5-4.7-3.9s1.1-5.6,1.4-6.7l2.4-9.8c.9-4,1.8-9.9-3.5-9.6-4.1.3-6.7,5.2-8.2,9.4l-2.3,9.2-2.1,8.7c-.4,1.6.3,2.2,1.8,2.2h.4v.2h-9.1v-.2c1.4,0,2.6-.2,3.1-2.2l2.1-8.7,2.2-9Z"></path>
    </g>
  </g>
  <g class="st4">
    <g class="st4">
      <path class="st3" d="M62,62.4c-2.4-.2-3.8-2.6-3.8-4.4,0-5,5.4-9.5,13.2-9.5h2.1l1.3-6c3.3-15.1,10.7-23.8,17.5-28,1-.6,1.2-1.4-.6-.9-5.1,1.6-30.8-2.2-38.3-2.2-31.5,0-41.9,17.2-41.9,35.2s10,22.6,21.9,22.6,18.4-5.3,18.4-14.4-2-6.2-5-6.2-3.4.9-4,2.8c-.2-.6-.2-1-.2-1.6,0-2.7,1.7-6,5.8-6s7.2,3.3,7.2,7.6c0,10.3-13.1,18.7-24.9,18.7S6.6,60.9,6.6,48.2C6.6,27.8,30.3,7.4,58.9,7.4s24,3.9,36.7,4c1.7,0,3.8-.4,5.6-.8l.3.4c-6.5,1.9-14.7,10.4-18.9,28.2l-2.1,9.1h.6c6.7,0,10.7-6.5,11.7-11.3h.4l-6.2,23.2h-.4c1.4-4.7.9-11.4-5.5-11.4h-.7l-3.9,16.4c-5.4,23-20.9,36.5-35.8,36.5s-18.3-5.8-18.3-15.1,4.7-9.6,9.8-9.6,5.6,3.1,5.6,5.8,0,1.6-.4,2.3c-.5-2-2.2-3-4-3-4.1,0-7.1,3.6-7.1,8.2s3.6,10.7,12.6,10.7c18.9,0,27.5-21.4,31.7-39l2.9-13.2h-2c-6.9,0-11.4,3.7-11.4,8.6s0,4.3,2.1,4.7v.2Z"></path>
    </g>
    <g class="st4">
      <path class="st2" d="M62,62.4c-2.4-.2-3.8-2.6-3.8-4.4,0-5,5.4-9.5,13.2-9.5h2.1l1.3-6c3.3-15.1,10.7-23.8,17.5-28,1-.6,1.2-1.4-.6-.9-5.1,1.6-30.8-2.2-38.3-2.2-31.5,0-41.9,17.2-41.9,35.2s10,22.6,21.9,22.6,18.4-5.3,18.4-14.4-2-6.2-5-6.2-3.4.9-4,2.8c-.2-.6-.2-1-.2-1.6,0-2.7,1.7-6,5.8-6s7.2,3.3,7.2,7.6c0,10.3-13.1,18.7-24.9,18.7S6.6,60.9,6.6,48.2C6.6,27.8,30.3,7.4,58.9,7.4s24,3.9,36.7,4c1.7,0,3.8-.4,5.6-.8l.3.4c-6.5,1.9-14.7,10.4-18.9,28.2l-2.1,9.1h.6c6.7,0,10.7-6.5,11.7-11.3h.4l-6.2,23.2h-.4c1.4-4.7.9-11.4-5.5-11.4h-.7l-3.9,16.4c-5.4,23-20.9,36.5-35.8,36.5s-18.3-5.8-18.3-15.1,4.7-9.6,9.8-9.6,5.6,3.1,5.6,5.8,0,1.6-.4,2.3c-.5-2-2.2-3-4-3-4.1,0-7.1,3.6-7.1,8.2s3.6,10.7,12.6,10.7c18.9,0,27.5-21.4,31.7-39l2.9-13.2h-2c-6.9,0-11.4,3.7-11.4,8.6s0,4.3,2.1,4.7v.2Z"></path>
    </g>
  </g>
  <g>
    <path class="st0" d="M93.2,77.8h-4.7v-2.4h12.2v2.4h-4.7v13.7h-2.9v-13.7h0Z"></path>
    <path class="st0" d="M107.3,75.4h3.4l5.3,16.1h-3l-2.5-8.6c-.5-1.7-1-3.5-1.5-5.3h0c-.4,1.8-.9,3.6-1.4,5.3l-2.5,8.6h-2.9l5.3-16.1h-.2ZM105.2,84.9h7.6v2.2h-7.6v-2.2Z"></path>
    <path class="st0" d="M118.7,75.4h5.4c3.4,0,5.9,1.2,5.9,4.8s-2.6,5-5.9,5h-2.6v6.3h-2.9v-16.1h0ZM123.9,82.9c2.2,0,3.4-.9,3.4-2.8s-1.2-2.5-3.4-2.5h-2.3v5.3h2.3ZM123.6,84.4l2.1-1.7,5,8.8h-3.2s-3.9-7.1-3.9-7.1Z"></path>
    <path class="st0" d="M133.3,83.4c0-5.2,2.9-8.3,7.1-8.3s7.1,3.1,7.1,8.3-2.9,8.4-7.1,8.4-7.1-3.2-7.1-8.4ZM144.6,83.4c0-3.6-1.6-5.8-4.2-5.8s-4.2,2.2-4.2,5.8,1.6,5.9,4.2,5.9,4.2-2.3,4.2-5.9Z"></path>
    <path class="st0" d="M154.8,77.8h-4.7v-2.4h12.2v2.4h-4.7v13.7h-2.9v-13.7h0Z"></path>
    <path class="st0" d="M171.6,75.4h9.7v2.4h-6.9v4.1h5.8v2.4h-5.8v4.8h7.1v2.4h-10v-16.1h0Z"></path>
    <path class="st0" d="M190.5,83.4c0-5.2,2.9-8.3,7.1-8.3s7.1,3.1,7.1,8.3-2.9,8.4-7.1,8.4-7.1-3.2-7.1-8.4ZM201.8,83.4c0-3.6-1.6-5.8-4.2-5.8s-4.2,2.2-4.2,5.8,1.6,5.9,4.2,5.9,4.2-2.3,4.2-5.9Z"></path>
    <path class="st0" d="M208.8,75.4h5.4c3.4,0,5.9,1.2,5.9,4.8s-2.6,5-5.9,5h-2.6v6.3h-2.9v-16.1h.1ZM213.9,82.9c2.2,0,3.4-.9,3.4-2.8s-1.2-2.5-3.4-2.5h-2.3v5.3h2.3ZM213.7,84.4l2.1-1.7,5,8.8h-3.2l-3.9-7.1h0Z"></path>
    <path class="st0" d="M227.3,75.4h3.4l5.3,16.1h-3l-2.5-8.6c-.5-1.7-1-3.5-1.5-5.3h0c-.4,1.8-.9,3.6-1.4,5.3l-2.5,8.6h-2.9l5.3-16.1h-.2ZM225.2,84.9h7.6v2.2h-7.6v-2.2ZM227.4,73.1l3.9-3.3,1.5,1.9-4.1,2.9-1.3-1.4h0Z"></path>
    <path class="st0" d="M237.9,83.5c0-5.3,3.3-8.4,7.4-8.4s3.6,1,4.7,2l-1.5,1.8c-.8-.8-1.8-1.4-3.1-1.4-2.6,0-4.5,2.2-4.5,5.8s1.7,5.9,4.4,5.9,2.5-.7,3.4-1.7l1.5,1.8c-1.3,1.5-3,2.4-5.1,2.4-4.1,0-7.3-3-7.3-8.3h.1Z"></path>
    <path class="st0" d="M253.7,84.4v-9.1h2.9v9.3c0,3.5,1.3,4.7,3.3,4.7s3.3-1.2,3.3-4.7v-9.3h2.8v9.1c0,5.3-2.4,7.4-6.1,7.4s-6.1-2.1-6.1-7.4h0Z"></path>
    <path class="st0" d="M270.7,75.4h2.9v13.7h6.7v2.4h-9.6v-16.1Z"></path>
    <path class="st0" d="M283,83.4c0-5.2,2.9-8.3,7.1-8.3s7.1,3.1,7.1,8.3-2.9,8.4-7.1,8.4-7.1-3.2-7.1-8.4ZM294.3,83.4c0-3.6-1.6-5.8-4.2-5.8s-4.2,2.2-4.2,5.8,1.6,5.9,4.2,5.9,4.2-2.3,4.2-5.9Z"></path>
    <path class="st0" d="M300.2,89.5l1.7-2c1.2,1.1,2.7,1.8,4.2,1.8s2.8-.8,2.8-2.1-1-1.8-2.5-2.4l-2.2-1c-1.6-.7-3.3-1.9-3.3-4.3s2.3-4.6,5.4-4.6,3.7.8,5,2.1l-1.5,1.8c-1-.9-2.1-1.4-3.5-1.4s-2.5.7-2.5,1.9,1.2,1.7,2.6,2.3l2.2.9c1.9.8,3.3,2,3.3,4.4s-2.2,4.8-5.8,4.8-4.3-.9-5.8-2.4v.2Z"></path>
    <path class="st0" d="M320.4,83.4c0-5.2,2.9-8.3,7.1-8.3s7.1,3.1,7.1,8.3-2.9,8.4-7.1,8.4-7.1-3.2-7.1-8.4ZM331.7,83.4c0-3.6-1.6-5.8-4.2-5.8s-4.2,2.2-4.2,5.8,1.6,5.9,4.2,5.9,4.2-2.3,4.2-5.9Z"></path>
    <path class="st0" d="M338.7,75.4h2.9l5,9.1,1.7,3.4h0c-.1-1.7-.4-3.7-.4-5.5v-7h2.7v16.1h-2.9l-5-9.1-1.7-3.4h0c.1,1.7.4,3.7.4,5.5v7.1h-2.7v-16.1h0Z"></path>
    <path class="st0" d="M355.7,75.4h2.9v13.7h6.7v2.4h-9.6v-16.1Z"></path>
    <path class="st0" d="M368.9,75.4h2.9v16.1h-2.9v-16.1Z"></path>
    <path class="st0" d="M376.6,75.4h2.9l5,9.1,1.7,3.4h0c-.1-1.7-.4-3.7-.4-5.5v-7h2.7v16.1h-2.9l-5-9.1-1.7-3.4h0c.1,1.7.4,3.7.4,5.5v7.1h-2.7v-16.1h0Z"></path>
    <path class="st0" d="M393.6,75.4h9.7v2.4h-6.9v4.1h5.8v2.4h-5.8v4.8h7.1v2.4h-10v-16.1h0Z"></path>
  </g>
</svg>